<svg width="24" height="23" viewBox="0 0 24 23" fill="none" xmlns="http://www.w3.org/2000/svg">
        <path fill-rule="evenodd" clip-rule="evenodd"
              d="M7.12868 20.5749C7.12868 19.4988 8.00104 18.6264 9.07714 18.6264C10.1532 18.6264 11.0256 19.4988 11.0256 20.5749C11.0256 21.651 10.1532 22.5233 9.07714 22.5233C8.00104 22.5233 7.12868 21.651 7.12868 20.5749Z"
              fill="#2A2A2A"/>
        <path fill-rule="evenodd" clip-rule="evenodd"
              d="M17.8452 20.5749C17.8452 19.4988 18.7176 18.6264 19.7937 18.6264C20.8698 18.6264 21.7421 19.4988 21.7421 20.5749C21.7421 21.651 20.8698 22.5233 19.7937 22.5233C18.7176 22.5233 17.8452 21.651 17.8452 20.5749Z"
              fill="#2A2A2A"/>
        <path fill-rule="evenodd" clip-rule="evenodd"
              d="M0.309082 1.0903C0.309082 0.552251 0.745259 0.116074 1.28331 0.116074H5.18022C5.64457 0.116074 6.04438 0.443818 6.13551 0.899131L6.95374 4.98722H22.7163C23.0067 4.98722 23.2819 5.11671 23.467 5.34042C23.6521 5.56413 23.7277 5.85873 23.6733 6.14393L22.1132 14.325C21.9795 14.9978 21.6135 15.6022 21.0792 16.0323C20.5475 16.4603 19.8829 16.6886 19.2007 16.678H9.74805C9.06583 16.6886 8.40121 16.4603 7.86955 16.0323C7.33545 15.6024 6.96954 14.9983 6.83577 14.3259L5.20829 6.19448C5.20169 6.16758 5.1962 6.14026 5.19188 6.11254L4.38168 2.06453H1.28331C0.745259 2.06453 0.309082 1.62835 0.309082 1.0903ZM7.34373 6.93567L8.74674 13.9454C8.79128 14.1697 8.91327 14.3712 9.09138 14.5145C9.26949 14.6579 9.49236 14.7341 9.72097 14.7297L9.73961 14.7295H19.2091L19.2278 14.7297C19.4564 14.7341 19.6793 14.6579 19.8574 14.5145C20.0346 14.3718 20.1563 14.1716 20.2014 13.9486L21.5388 6.93567H7.34373Z"
              fill="#2A2A2A"/>
</svg>
