<svg width="20" height="21" viewBox="0 0 20 21" fill="none" xmlns="http://www.w3.org/2000/svg">
<path fill-rule="evenodd" clip-rule="evenodd" d="M9 2.04955C5.13401 2.04955 2 5.18356 2 9.04955C2 12.9155 5.13401 16.0496 9 16.0496C12.866 16.0496 16 12.9155 16 9.04955C16 5.18356 12.866 2.04955 9 2.04955ZM0 9.04955C0 4.07899 4.02944 0.0495529 9 0.0495529C13.9706 0.0495529 18 4.07899 18 9.04955C18 14.0201 13.9706 18.0496 9 18.0496C4.02944 18.0496 0 14.0201 0 9.04955Z" fill="#2A2A2A"/>
<path fill-rule="evenodd" clip-rule="evenodd" d="M13.9429 13.9924C14.3334 13.6019 14.9666 13.6019 15.3571 13.9924L19.7071 18.3424C20.0976 18.7329 20.0976 19.3662 19.7071 19.7567C19.3166 20.1472 18.6834 20.1472 18.2929 19.7567L13.9429 15.4066C13.5524 15.0161 13.5524 14.3829 13.9429 13.9924Z" fill="#2A2A2A"/>
</svg>
