<svg width="14" height="14" viewBox="0 0 14 14" fill="none" xmlns="http://www.w3.org/2000/svg">
<path fill-rule="evenodd" clip-rule="evenodd" d="M4.08333 12.7826C4.08333 12.1103 4.60567 11.5652 5.25 11.5652C5.89433 11.5652 6.41666 12.1103 6.41666 12.7826C6.41666 13.455 5.89433 14 5.25 14C4.60567 14 4.08333 13.455 4.08333 12.7826Z" fill="#2A2A2A"/>
<path fill-rule="evenodd" clip-rule="evenodd" d="M10.5 12.7826C10.5 12.1103 11.0223 11.5652 11.6667 11.5652C12.311 11.5652 12.8333 12.1103 12.8333 12.7826C12.8333 13.455 12.311 14 11.6667 14C11.0223 14 10.5 13.455 10.5 12.7826Z" fill="#2A2A2A"/>
<path fill-rule="evenodd" clip-rule="evenodd" d="M0 0.608696C0 0.272522 0.261167 0 0.583333 0H2.91667C3.1947 0 3.43409 0.204774 3.48866 0.489253L3.97859 3.04348H13.4167C13.5905 3.04348 13.7553 3.12439 13.8661 3.26416C13.9769 3.40393 14.0222 3.588 13.9897 3.76619L13.0555 8.87773C12.9755 9.29809 12.7563 9.67569 12.4364 9.94443C12.118 10.2118 11.7201 10.3545 11.3116 10.3478H5.65172C5.24323 10.3545 4.84528 10.2118 4.52694 9.94443C4.20714 9.6758 3.98804 9.2984 3.90795 8.87825L2.93347 3.79777C2.92952 3.78097 2.92623 3.7639 2.92364 3.74658L2.43852 1.21739H0.583333C0.261167 1.21739 0 0.944869 0 0.608696ZM4.21209 4.26087L5.05217 8.64055C5.07884 8.78067 5.15188 8.90655 5.25852 8.99613C5.36517 9.08571 5.49862 9.13328 5.6355 9.13055L5.64666 9.13043H11.3167L11.3278 9.13055C11.4647 9.13328 11.5982 9.08571 11.7048 8.99613C11.811 8.90697 11.8838 8.78186 11.9108 8.64252L12.7116 4.26087H4.21209Z" fill="#2A2A2A"/>
</svg>
