<svg xmlns="http://www.w3.org/2000/svg">
    <symbol id="ok" width="12" height="21" viewBox="0 0 12 21">
<path d="M5.7 0.699951C2.9 0.699951 0.599998 2.99995 0.599998 5.79995C0.599998 8.59995 2.9 10.9 5.7 10.9C8.5 10.9 10.8 8.59995 10.8 5.79995C10.8 2.99995 8.5 0.699951 5.7 0.699951ZM5.7 7.89995C4.6 7.89995 3.6 6.99995 3.6 5.79995C3.6 4.69995 4.5 3.69995 5.7 3.69995C6.9 3.69995 7.8 4.59995 7.8 5.79995C7.8 6.99995 6.9 7.89995 5.7 7.89995ZM7.8 15.1C9.6 14.7 10.7 13.9 10.9 13.8C11.3 13.5 11.5 13.1 11.5 12.6C11.5 11.8 10.8 11.1 10 11.1C9.7 11.1 9.4 11.2 9.1 11.4C9.1 11.4 7.7 12.3 5.8 12.3C3.9 12.3 2.4 11.3 2.3 11.3C2.1 11.1 1.8 11.1 1.5 11.1C0.7 11.1 0 11.8 0 12.6C0 13.1 0.199997 13.6 0.699997 13.8C0.799997 13.9 1.9 14.6 3.7 15L0.899994 17.9C0.299994 18.5 0.399994 19.4 0.899994 20C1.19999 20.2999 1.6 20.5 2 20.5C2.4 20.5 2.8 20.2999 3.1 20L5.89999 17.2L8.7 20C9.3 20.6 10.2 20.6 10.8 20C11.4 19.4 11.4 18.5 10.8 17.9L7.8 15.1Z"/>
    </symbol>
</svg>
