<svg width="14" height="12" viewBox="0 0 14 12" fill="none" xmlns="http://www.w3.org/2000/svg">
<path fill-rule="evenodd" clip-rule="evenodd" d="M1.90913 1.33333C1.56058 1.33333 1.27277 1.63486 1.27277 2V10C1.27277 10.3651 1.56058 10.6667 1.90913 10.6667H12.0909C12.4394 10.6667 12.7272 10.3651 12.7272 10V2C12.7272 1.63486 12.4394 1.33333 12.0909 1.33333H1.90913ZM5.20645e-05 2C5.20645e-05 0.898477 0.857682 0 1.90913 0H12.0909C13.1423 0 13.9999 0.898477 13.9999 2V10C13.9999 11.1015 13.1423 12 12.0909 12H1.90913C0.857682 12 5.20645e-05 11.1015 5.20645e-05 10V2Z" fill="#2A2A2A"/>
<path fill-rule="evenodd" clip-rule="evenodd" d="M0.115087 1.61768C0.316631 1.31604 0.713424 1.24271 1.00134 1.45386L7 5.85291L12.9987 1.45386C13.2866 1.24271 13.6834 1.31604 13.8849 1.61768C14.0865 1.91931 14.0164 2.335 13.7285 2.54614L7.36493 7.21281C7.14582 7.37349 6.85419 7.37349 6.63507 7.21281L0.271487 2.54614C-0.0164329 2.335 -0.0864568 1.91931 0.115087 1.61768Z" fill="#2A2A2A"/>
</svg>
