<svg width="28" height="23" viewBox="0 0 28 23" fill="none" xmlns="http://www.w3.org/2000/svg">
<path fill-rule="evenodd" clip-rule="evenodd" d="M5.03712 12.4401C5.65587 12.4401 6.15748 12.9417 6.15748 13.5604V21.403C6.15748 22.0217 5.65587 22.5233 5.03712 22.5233C4.41836 22.5233 3.91675 22.0217 3.91675 21.403V13.5604C3.91675 12.9417 4.41836 12.4401 5.03712 12.4401Z" fill="#2A2A2A"/>
<path fill-rule="evenodd" clip-rule="evenodd" d="M5.03712 0.116074C5.65587 0.116074 6.15748 0.617677 6.15748 1.23644V9.07897C6.15748 9.69773 5.65587 10.1993 5.03712 10.1993C4.41836 10.1993 3.91675 9.69773 3.91675 9.07897V1.23644C3.91675 0.617677 4.41836 0.116074 5.03712 0.116074Z" fill="#2A2A2A"/>
<path fill-rule="evenodd" clip-rule="evenodd" d="M14 10.1993C14.6188 10.1993 15.1204 10.7009 15.1204 11.3197V21.403C15.1204 22.0217 14.6188 22.5233 14 22.5233C13.3813 22.5233 12.8797 22.0217 12.8797 21.403V11.3197C12.8797 10.7009 13.3813 10.1993 14 10.1993Z" fill="#2A2A2A"/>
<path fill-rule="evenodd" clip-rule="evenodd" d="M14 0.116074C14.6188 0.116074 15.1204 0.617677 15.1204 1.23644V6.83825C15.1204 7.45701 14.6188 7.95861 14 7.95861C13.3813 7.95861 12.8797 7.45701 12.8797 6.83825V1.23644C12.8797 0.617677 13.3813 0.116074 14 0.116074Z" fill="#2A2A2A"/>
<path fill-rule="evenodd" clip-rule="evenodd" d="M22.9629 14.6808C23.5817 14.6808 24.0833 15.1824 24.0833 15.8012V21.403C24.0833 22.0217 23.5817 22.5233 22.9629 22.5233C22.3442 22.5233 21.8426 22.0217 21.8426 21.403V15.8012C21.8426 15.1824 22.3442 14.6808 22.9629 14.6808Z" fill="#2A2A2A"/>
<path fill-rule="evenodd" clip-rule="evenodd" d="M22.9629 0.116074C23.5817 0.116074 24.0833 0.617677 24.0833 1.23644V11.3197C24.0833 11.9385 23.5817 12.4401 22.9629 12.4401C22.3442 12.4401 21.8426 11.9385 21.8426 11.3197V1.23644C21.8426 0.617677 22.3442 0.116074 22.9629 0.116074Z" fill="#2A2A2A"/>
<path fill-rule="evenodd" clip-rule="evenodd" d="M0.555664 13.5604C0.555664 12.9417 1.05727 12.4401 1.67603 12.4401H8.3982C9.01696 12.4401 9.51857 12.9417 9.51857 13.5604C9.51857 14.1792 9.01696 14.6808 8.3982 14.6808H1.67603C1.05727 14.6808 0.555664 14.1792 0.555664 13.5604Z" fill="#2A2A2A"/>
<path fill-rule="evenodd" clip-rule="evenodd" d="M9.51857 6.83825C9.51857 6.21949 10.0202 5.71789 10.6389 5.71789H17.3611C17.9799 5.71789 18.4815 6.21949 18.4815 6.83825C18.4815 7.45701 17.9799 7.95861 17.3611 7.95861H10.6389C10.0202 7.95861 9.51857 7.45701 9.51857 6.83825Z" fill="#2A2A2A"/>
<path fill-rule="evenodd" clip-rule="evenodd" d="M18.4815 15.8012C18.4815 15.1824 18.9831 14.6808 19.6018 14.6808H26.324C26.9428 14.6808 27.4444 15.1824 27.4444 15.8012C27.4444 16.4199 26.9428 16.9215 26.324 16.9215H19.6018C18.9831 16.9215 18.4815 16.4199 18.4815 15.8012Z" fill="#2A2A2A"/>
</svg>
