<svg width="26" height="23" viewBox="0 0 26 23" fill="none" xmlns="http://www.w3.org/2000/svg">
<path fill-rule="evenodd" clip-rule="evenodd" d="M15.7263 0.66436C16.5999 0.30237 17.5363 0.116074 18.482 0.116074C19.4276 0.116074 20.364 0.30237 21.2376 0.66436C22.1111 1.02628 22.9047 1.55673 23.5732 2.2254C24.2418 2.89385 24.7727 3.68784 25.1346 4.56131C25.4966 5.43494 25.6829 6.37134 25.6829 7.317C25.6829 8.26266 25.4966 9.19907 25.1346 10.0727C24.7726 10.9462 24.2421 11.7399 23.5734 12.4084L13.7829 22.1989C13.3503 22.6315 12.6491 22.6315 12.2166 22.1989L2.42607 12.4084C1.07575 11.0581 0.317139 9.22665 0.317139 7.317C0.317139 5.40736 1.07575 3.57592 2.42607 2.2256C3.7764 0.875276 5.60783 0.116682 7.51748 0.116682C9.42712 0.116682 11.2586 0.875276 12.6089 2.2256L12.9997 2.61645L13.3904 2.2258C14.0589 1.55705 14.8527 1.02632 15.7263 0.66436ZM18.482 2.33112C17.8273 2.33112 17.179 2.46014 16.5742 2.71075C15.9694 2.96136 15.4198 3.32867 14.957 3.79171L13.7829 4.96588C13.3503 5.3984 12.6491 5.3984 12.2166 4.96588L11.0426 3.79184C10.1077 2.85692 8.83966 2.33173 7.51748 2.33173C6.1953 2.33173 4.92727 2.85692 3.99235 3.79184C3.05743 4.72677 2.53219 5.99482 2.53219 7.317C2.53219 8.63918 3.05743 9.90724 3.99235 10.8422L12.9997 19.8495L22.0071 10.8422C22.4701 10.3793 22.8376 9.82957 23.0882 9.22475C23.3388 8.61993 23.4678 7.97169 23.4678 7.317C23.4678 6.66232 23.3388 6.01408 23.0882 5.40926C22.8376 4.80443 22.4703 4.25487 22.0073 3.79205C21.5444 3.329 20.9946 2.96136 20.3897 2.71075C19.7849 2.46014 19.1366 2.33112 18.482 2.33112Z" fill="#2A2A2A"/>
</svg>
