<svg width="16" height="15" viewBox="0 0 16 15" fill="none" xmlns="http://www.w3.org/2000/svg">
<g opacity="0.2">
<path fill-rule="evenodd" clip-rule="evenodd" d="M9.71965 0.345844C10.2707 0.11751 10.8614 0 11.4579 0C12.0543 0 12.645 0.117511 13.1961 0.345844C13.747 0.574135 14.2476 0.908727 14.6693 1.3305C15.091 1.75214 15.4259 2.25297 15.6541 2.80393C15.8825 3.35499 16 3.94565 16 4.54214C16 5.13864 15.8825 5.7293 15.6541 6.28036C15.4258 6.83137 15.0912 7.332 14.6694 7.75366L8.4938 13.9293C8.22098 14.2021 7.77865 14.2021 7.50583 13.9293L1.33026 7.75366C0.478511 6.90191 0 5.7467 0 4.54214C0 3.33759 0.478511 2.18238 1.33026 1.33063C2.182 0.478884 3.33722 0.00038375 4.54177 0.00038375C5.74632 0.00038375 6.90154 0.478884 7.75329 1.33063L7.99981 1.57717L8.24623 1.33076C8.6679 0.908929 9.16864 0.574156 9.71965 0.345844ZM11.4579 1.39719C11.0449 1.39719 10.636 1.47857 10.2545 1.63665C9.87299 1.79473 9.52636 2.02641 9.23442 2.31849L8.4938 3.05912C8.22098 3.33194 7.77865 3.33194 7.50583 3.05912L6.76532 2.31857C6.1756 1.72885 5.37577 1.39757 4.54177 1.39757C3.70778 1.39757 2.90794 1.72885 2.31822 2.31857C1.7285 2.90829 1.39719 3.70815 1.39719 4.54214C1.39719 5.37614 1.7285 6.17599 2.31822 6.76572L7.99981 12.4473L13.6814 6.76572C13.9735 6.47378 14.2053 6.127 14.3634 5.7455C14.5215 5.36399 14.6028 4.9551 14.6028 4.54214C14.6028 4.12919 14.5215 3.7203 14.3634 3.33879C14.2053 2.95729 13.9736 2.61064 13.6815 2.3187C13.3896 2.02663 13.0427 1.79473 12.6612 1.63665C12.2797 1.47857 11.8708 1.39719 11.4579 1.39719Z" fill="#2A2A2A"/>
<path d="M11.4579 1.39719C11.0449 1.39719 10.636 1.47857 10.2545 1.63665C9.87299 1.79473 9.52636 2.02641 9.23442 2.31849L8.4938 3.05912C8.22098 3.33194 7.77865 3.33194 7.50583 3.05912L6.76532 2.31857C6.1756 1.72885 5.37577 1.39757 4.54177 1.39757C3.70778 1.39757 2.90794 1.72885 2.31822 2.31857C1.7285 2.90829 1.39719 3.70815 1.39719 4.54214C1.39719 5.37614 1.7285 6.17599 2.31822 6.76572L7.99981 12.4473L13.6814 6.76572C13.9735 6.47378 14.2053 6.127 14.3634 5.7455C14.5215 5.36399 14.6028 4.9551 14.6028 4.54214C14.6028 4.12919 14.5215 3.7203 14.3634 3.33879C14.2053 2.95729 13.9736 2.61064 13.6815 2.3187C13.3896 2.02663 13.0427 1.79473 12.6612 1.63665C12.2797 1.47857 11.8708 1.39719 11.4579 1.39719Z" fill="#2A2A2A"/>
</g>
</svg>
